<svg width="29" height="26" viewBox="0 0 29 26" fill="none" xmlns="http://www.w3.org/2000/svg">
<path d="M27.4968 17.7911C27.0829 17.1637 26.5175 16.6436 25.852 16.2738L26.8646 12.6573L26.8754 12.6215V10.2907C26.3995 5.07462 21.7571 1 16.2046 1H14.1362V10.051H8.03863L7.07723 6.01097C6.97346 5.56367 6.71342 5.16766 6.34604 4.88496C5.97866 4.60346 5.5242 4.45078 5.05781 4.44839H1.00586V6.70279H4.85504L7.03787 15.8755C6.27567 16.1104 5.58384 16.5255 5.03038 17.0861C4.41608 17.7076 3.99502 18.4817 3.8173 19.3238C3.63957 20.166 3.71352 21.0379 4.02842 21.8407C4.34452 22.6434 4.88843 23.3424 5.59696 23.8613C6.30549 24.3801 7.14999 24.6986 8.03505 24.7821C8.92011 24.8656 9.81352 24.7117 10.6127 24.3372C11.4131 23.9627 12.0894 23.3806 12.5641 22.6542C13.0389 21.9277 13.2917 21.088 13.2917 20.228C13.2917 20.1719 13.2917 20.1171 13.2882 20.0622H18.6665C18.6641 20.1171 18.6629 20.1719 18.6629 20.228C18.6629 21.0439 18.8908 21.843 19.3202 22.5456C19.7508 23.247 20.3674 23.8243 21.1046 24.2203C21.8429 24.6163 22.6767 24.8179 23.5212 24.8048C24.3657 24.7917 25.1923 24.5662 25.9176 24.1487C26.6428 23.7313 27.2404 23.136 27.6483 22.4216C28.0563 21.7071 28.2578 20.9007 28.2304 20.086C28.203 19.2702 27.9489 18.4781 27.4956 17.7911H27.4968ZM16.461 6.6527V3.25798C20.5595 3.37606 23.9017 6.30678 24.4659 10.051H16.461V6.6527ZM8.43464 23.1229C6.79453 23.1229 5.46456 21.8562 5.46456 20.2924C5.46456 18.7286 6.79453 17.4619 8.43464 17.4619C10.0747 17.4619 11.4047 18.7286 11.4047 20.2924C11.4047 21.8562 10.0747 23.1229 8.43464 23.1229V23.1229ZM19.3905 17.8078H12.5653C12.2122 17.2663 11.7435 16.8023 11.1924 16.4432C10.6485 16.0902 10.0342 15.848 9.39007 15.7311L8.5742 12.3042H24.5506V12.3197L23.6154 15.656C23.5606 15.6536 23.5045 15.6524 23.4496 15.6524C22.6147 15.6524 21.7928 15.8623 21.0664 16.2619C20.3841 16.6365 19.8092 17.1673 19.3917 17.8078H19.3905ZM23.6727 23.1229C22.0326 23.1229 20.7026 21.8562 20.7026 20.2924C20.7026 18.7286 22.0326 17.4619 23.6727 17.4619C25.3128 17.4619 26.6428 18.7286 26.6428 20.2924C26.6428 21.8562 25.3128 23.1229 23.6727 23.1229Z" fill="#187D35" stroke="#187D35" stroke-width="0.5"/>
</svg>
