<svg width="290" height="27" viewBox="0 0 290 27" fill="none" xmlns="http://www.w3.org/2000/svg">
<path d="M0 0.192383H1.98554V12.5591H19.0859V0.192383H21.068V26.9216H19.0859V14.39H1.98554V26.9216H0V0.192383Z" fill="#187D35"/>
<path d="M54.7656 0.192383H73.776V2.02333H56.7512V12.5213H72.055V14.3522H56.7512V25.0769H73.9649V26.9216H54.7656V0.192383Z" fill="#187D35"/>
<path d="M106.09 0.192383H108.075V25.0769H123.764V26.9216H106.09V0.192383Z" fill="#187D35"/>
<path d="M165.626 0H167.536L179.978 26.9216H177.804L174.406 19.4397H158.642L155.245 26.9216H153.184L165.626 0ZM173.568 17.6466L166.543 2.18822L159.484 17.6466H173.568Z" fill="#187D35"/>
<path d="M219.978 13.2839L209.748 0.192383H212.115L221.228 11.9854L230.315 0.192383H232.64L222.379 13.2839L233.028 26.9113H230.661L221.16 14.5824L211.692 26.9216H209.363L219.978 13.2839Z" fill="#187D35"/>
<path d="M274.852 0H276.762L289.205 26.9216H287.03L283.633 19.4397H267.869L264.471 26.9216H262.41L274.852 0ZM282.791 17.6466L275.77 2.18822L268.707 17.6466H282.791Z" fill="#187D35"/>
</svg>
