<svg width="19" height="14" viewBox="0 0 19 14" fill="none" xmlns="http://www.w3.org/2000/svg">
<path d="M5.21289 4.3999L9.25456 7.22907L13.2962 4.3999" stroke="#414141" stroke-width="1.4" stroke-linecap="round" stroke-linejoin="round"/>
<path d="M1.16992 10.8665V2.78317C1.16992 2.3544 1.34025 1.9432 1.64343 1.64001C1.94662 1.33683 2.35782 1.1665 2.78659 1.1665H15.7199C16.1487 1.1665 16.5599 1.33683 16.8631 1.64001C17.1663 1.9432 17.3366 2.3544 17.3366 2.78317V10.8665C17.3366 11.2953 17.1663 11.7065 16.8631 12.0097C16.5599 12.3128 16.1487 12.4832 15.7199 12.4832H2.78659C2.35782 12.4832 1.94662 12.3128 1.64343 12.0097C1.34025 11.7065 1.16992 11.2953 1.16992 10.8665Z" stroke="#414141" stroke-width="1.4"/>
</svg>
