<svg width="18" height="14" viewBox="0 0 18 14" fill="none" xmlns="http://www.w3.org/2000/svg">
<path d="M5.04297 4.3999L9.08464 7.22907L13.1263 4.3999" stroke="#187D35" stroke-width="1.4" stroke-linecap="round" stroke-linejoin="round"/>
<path d="M1 10.8665V2.78317C1 2.3544 1.17033 1.9432 1.47351 1.64001C1.77669 1.33683 2.1879 1.1665 2.61667 1.1665H15.55C15.9788 1.1665 16.39 1.33683 16.6932 1.64001C16.9963 1.9432 17.1667 2.3544 17.1667 2.78317V10.8665C17.1667 11.2953 16.9963 11.7065 16.6932 12.0097C16.39 12.3128 15.9788 12.4832 15.55 12.4832H2.61667C2.1879 12.4832 1.77669 12.3128 1.47351 12.0097C1.17033 11.7065 1 11.2953 1 10.8665Z" stroke="#187D35" stroke-width="1.4"/>
</svg>
