<svg width="76" height="33" viewBox="0 0 76 33" fill="none" xmlns="http://www.w3.org/2000/svg">
<path d="M21.3682 20.797H10.7644V32.3434H0V0.143066H10.7644V11.5052H21.3682V20.797Z" fill="#187D35"/>
<path d="M65.9922 15.4067L76.0009 0.143066L64.0058 0.143969L59.5807 6.86881L59.4091 7.13517L59.2375 6.86881L54.8124 0.143969L42.8164 0.143066L52.826 15.4067L53.4562 16.3611L42.8164 32.3434H54.8232L59.4091 25.3775L63.995 32.3434H76.0009L65.3611 16.3611L65.9922 15.4067Z" fill="#187D35"/>
<path d="M47.1036 23.0513L40.9629 32.3431H41.8541L47.9947 23.0513H47.1036Z" fill="#187D35"/>
<path d="M43.2537 23.0516H36.6472H33.0906V0.143066H22.3262V32.3434H30.5065H37.1131H38.1062L44.2469 23.0516H43.2537Z" fill="#187D35"/>
<path d="M45.2051 23.0513L39.0645 32.3431H40.0044L46.145 23.0513H45.2051Z" fill="#187D35"/>
</svg>
