<svg width="21" height="20" viewBox="0 0 21 20" fill="none" xmlns="http://www.w3.org/2000/svg">
<mask id="path-1-outside-1_2075_622" maskUnits="userSpaceOnUse" x="0" y="0" width="21" height="20" fill="black">
<rect fill="white" width="21" height="20"/>
<path d="M13.7222 7.72798L18.8148 2.91977L18.7963 5.64971C18.7963 5.75538 18.8395 5.85225 18.9259 5.94031C19.0123 6.02838 19.1111 6.07241 19.2222 6.07241H19.537C19.6605 6.06067 19.7623 6.0225 19.8426 5.95793C19.9228 5.89335 19.9691 5.80822 19.9815 5.70254V1.63405L19.9722 1.62524L19.963 1.61644L20 1.40509C20 1.28767 19.963 1.19374 19.8889 1.12329C19.8025 1.0411 19.7037 1 19.5926 1L19.3704 1.01761H19.3519L15.1111 1C15.0494 1 14.9907 1.01174 14.9352 1.03523C14.8796 1.05871 14.8333 1.08806 14.7963 1.12329C14.7593 1.15851 14.7284 1.20254 14.7037 1.25538C14.679 1.30822 14.6667 1.36399 14.6667 1.4227V1.7045C14.679 1.83366 14.7346 1.9364 14.8333 2.01272C14.9321 2.08904 15.0432 2.1272 15.1667 2.1272H17.963L12.8889 6.93542C12.7654 7.0411 12.7037 7.17319 12.7037 7.3317C12.7037 7.49022 12.7654 7.62231 12.8889 7.72798C13.0988 7.93933 13.3395 7.96869 13.6111 7.81605C13.6481 7.78082 13.6852 7.75147 13.7222 7.72798ZM7.2963 12.272L2.2037 17.0802L2.22222 14.3503C2.22222 14.2446 2.17901 14.1477 2.09259 14.0597C2.00617 13.9716 1.90741 13.9276 1.7963 13.9276H1.46296C1.41358 13.9393 1.36111 13.954 1.30556 13.9716C1.25 13.9892 1.20062 14.0127 1.15741 14.0421C1.1142 14.0714 1.08333 14.1096 1.06481 14.1566C1.0463 14.2035 1.03086 14.2505 1.01852 14.2975V18.3659L1.02778 18.3748L1.03704 18.3836L1 18.5949C1 18.6536 1.00926 18.7065 1.02778 18.7534C1.0463 18.8004 1.07407 18.8415 1.11111 18.8767C1.19753 18.9589 1.2963 19 1.40741 19L1.62963 18.9824H1.64815L5.90741 19C6.03086 19 6.1358 18.9589 6.22222 18.8767C6.30864 18.7945 6.35185 18.6947 6.35185 18.5773V18.2955C6.33951 18.1663 6.28395 18.0636 6.18519 17.9873C6.08642 17.911 5.97531 17.8728 5.85185 17.8728H3.05556L8.12963 13.0646C8.19136 13.0059 8.23765 12.9442 8.26852 12.8796C8.29938 12.8151 8.31482 12.7446 8.31482 12.6683C8.31482 12.592 8.29938 12.5186 8.26852 12.4481C8.23765 12.3777 8.19136 12.319 8.12963 12.272C8.05556 12.2016 7.96914 12.1517 7.87037 12.1223C7.77161 12.093 7.66975 12.093 7.56482 12.1223C7.45988 12.1517 7.37037 12.2016 7.2963 12.272ZM19.9815 18.3659V14.2975C19.9691 14.1918 19.9228 14.1067 19.8426 14.0421C19.7623 13.9775 19.6605 13.9393 19.537 13.9276H19.2222C19.1111 13.9276 19.0123 13.9687 18.9259 14.0509C18.8395 14.1331 18.7963 14.2329 18.7963 14.3503L18.8148 17.0802L13.7222 12.272C13.6481 12.2016 13.5586 12.1517 13.4537 12.1223C13.3488 12.093 13.2469 12.093 13.1481 12.1223C13.0494 12.1517 12.963 12.2016 12.8889 12.272C12.7654 12.3777 12.7037 12.5098 12.7037 12.6683C12.7037 12.8268 12.7654 12.9589 12.8889 13.0646L17.963 17.8728H15.1667C15.0802 17.8728 15.0031 17.8875 14.9352 17.9168C14.8673 17.9462 14.8086 17.9961 14.7593 18.0665C14.7099 18.137 14.679 18.2133 14.6667 18.2955V18.5773C14.6667 18.6595 14.6883 18.7329 14.7315 18.7975C14.7747 18.862 14.8272 18.9119 14.8889 18.9472C14.9506 18.9824 15.0247 19 15.1111 19L19.3519 18.9824H19.3704L19.5926 19C19.7037 19 19.8025 18.9589 19.8889 18.8767C19.963 18.8063 20 18.7123 20 18.5949L19.963 18.3836H19.9815V18.3659ZM3.05556 2.1272H5.85185C5.97531 2.1272 6.08642 2.08904 6.18519 2.01272C6.28395 1.9364 6.33951 1.83366 6.35185 1.7045V1.4227C6.35185 1.30528 6.30864 1.20548 6.22222 1.12329C6.1358 1.0411 6.03086 1 5.90741 1L1.64815 1.01761H1.62963L1.40741 1C1.2963 1 1.19753 1.0411 1.11111 1.12329C1.07407 1.15851 1.0463 1.19961 1.02778 1.24658C1.00926 1.29354 1 1.34638 1 1.40509L1.03704 1.61644H1.02778L1.01852 1.63405V5.70254C1.03086 5.80822 1.07716 5.89335 1.15741 5.95793C1.23765 6.0225 1.33951 6.06067 1.46296 6.07241H1.7963C1.87037 6.07241 1.94136 6.05186 2.00926 6.01076C2.07716 5.96967 2.12963 5.91683 2.16667 5.85225C2.2037 5.78767 2.22222 5.72016 2.22222 5.64971L2.2037 2.91977L7.2963 7.72798C7.40741 7.8454 7.5463 7.90411 7.71296 7.90411C7.87963 7.90411 8.02161 7.84834 8.13889 7.73679C8.25617 7.62524 8.31482 7.49022 8.31482 7.3317C8.31482 7.17319 8.25309 7.0411 8.12963 6.93542L3.05556 2.1272Z"/>
</mask>
<path d="M13.7222 7.72798L18.8148 2.91977L18.7963 5.64971C18.7963 5.75538 18.8395 5.85225 18.9259 5.94031C19.0123 6.02838 19.1111 6.07241 19.2222 6.07241H19.537C19.6605 6.06067 19.7623 6.0225 19.8426 5.95793C19.9228 5.89335 19.9691 5.80822 19.9815 5.70254V1.63405L19.9722 1.62524L19.963 1.61644L20 1.40509C20 1.28767 19.963 1.19374 19.8889 1.12329C19.8025 1.0411 19.7037 1 19.5926 1L19.3704 1.01761H19.3519L15.1111 1C15.0494 1 14.9907 1.01174 14.9352 1.03523C14.8796 1.05871 14.8333 1.08806 14.7963 1.12329C14.7593 1.15851 14.7284 1.20254 14.7037 1.25538C14.679 1.30822 14.6667 1.36399 14.6667 1.4227V1.7045C14.679 1.83366 14.7346 1.9364 14.8333 2.01272C14.9321 2.08904 15.0432 2.1272 15.1667 2.1272H17.963L12.8889 6.93542C12.7654 7.0411 12.7037 7.17319 12.7037 7.3317C12.7037 7.49022 12.7654 7.62231 12.8889 7.72798C13.0988 7.93933 13.3395 7.96869 13.6111 7.81605C13.6481 7.78082 13.6852 7.75147 13.7222 7.72798ZM7.2963 12.272L2.2037 17.0802L2.22222 14.3503C2.22222 14.2446 2.17901 14.1477 2.09259 14.0597C2.00617 13.9716 1.90741 13.9276 1.7963 13.9276H1.46296C1.41358 13.9393 1.36111 13.954 1.30556 13.9716C1.25 13.9892 1.20062 14.0127 1.15741 14.0421C1.1142 14.0714 1.08333 14.1096 1.06481 14.1566C1.0463 14.2035 1.03086 14.2505 1.01852 14.2975V18.3659L1.02778 18.3748L1.03704 18.3836L1 18.5949C1 18.6536 1.00926 18.7065 1.02778 18.7534C1.0463 18.8004 1.07407 18.8415 1.11111 18.8767C1.19753 18.9589 1.2963 19 1.40741 19L1.62963 18.9824H1.64815L5.90741 19C6.03086 19 6.1358 18.9589 6.22222 18.8767C6.30864 18.7945 6.35185 18.6947 6.35185 18.5773V18.2955C6.33951 18.1663 6.28395 18.0636 6.18519 17.9873C6.08642 17.911 5.97531 17.8728 5.85185 17.8728H3.05556L8.12963 13.0646C8.19136 13.0059 8.23765 12.9442 8.26852 12.8796C8.29938 12.8151 8.31482 12.7446 8.31482 12.6683C8.31482 12.592 8.29938 12.5186 8.26852 12.4481C8.23765 12.3777 8.19136 12.319 8.12963 12.272C8.05556 12.2016 7.96914 12.1517 7.87037 12.1223C7.77161 12.093 7.66975 12.093 7.56482 12.1223C7.45988 12.1517 7.37037 12.2016 7.2963 12.272ZM19.9815 18.3659V14.2975C19.9691 14.1918 19.9228 14.1067 19.8426 14.0421C19.7623 13.9775 19.6605 13.9393 19.537 13.9276H19.2222C19.1111 13.9276 19.0123 13.9687 18.9259 14.0509C18.8395 14.1331 18.7963 14.2329 18.7963 14.3503L18.8148 17.0802L13.7222 12.272C13.6481 12.2016 13.5586 12.1517 13.4537 12.1223C13.3488 12.093 13.2469 12.093 13.1481 12.1223C13.0494 12.1517 12.963 12.2016 12.8889 12.272C12.7654 12.3777 12.7037 12.5098 12.7037 12.6683C12.7037 12.8268 12.7654 12.9589 12.8889 13.0646L17.963 17.8728H15.1667C15.0802 17.8728 15.0031 17.8875 14.9352 17.9168C14.8673 17.9462 14.8086 17.9961 14.7593 18.0665C14.7099 18.137 14.679 18.2133 14.6667 18.2955V18.5773C14.6667 18.6595 14.6883 18.7329 14.7315 18.7975C14.7747 18.862 14.8272 18.9119 14.8889 18.9472C14.9506 18.9824 15.0247 19 15.1111 19L19.3519 18.9824H19.3704L19.5926 19C19.7037 19 19.8025 18.9589 19.8889 18.8767C19.963 18.8063 20 18.7123 20 18.5949L19.963 18.3836H19.9815V18.3659ZM3.05556 2.1272H5.85185C5.97531 2.1272 6.08642 2.08904 6.18519 2.01272C6.28395 1.9364 6.33951 1.83366 6.35185 1.7045V1.4227C6.35185 1.30528 6.30864 1.20548 6.22222 1.12329C6.1358 1.0411 6.03086 1 5.90741 1L1.64815 1.01761H1.62963L1.40741 1C1.2963 1 1.19753 1.0411 1.11111 1.12329C1.07407 1.15851 1.0463 1.19961 1.02778 1.24658C1.00926 1.29354 1 1.34638 1 1.40509L1.03704 1.61644H1.02778L1.01852 1.63405V5.70254C1.03086 5.80822 1.07716 5.89335 1.15741 5.95793C1.23765 6.0225 1.33951 6.06067 1.46296 6.07241H1.7963C1.87037 6.07241 1.94136 6.05186 2.00926 6.01076C2.07716 5.96967 2.12963 5.91683 2.16667 5.85225C2.2037 5.78767 2.22222 5.72016 2.22222 5.64971L2.2037 2.91977L7.2963 7.72798C7.40741 7.8454 7.5463 7.90411 7.71296 7.90411C7.87963 7.90411 8.02161 7.84834 8.13889 7.73679C8.25617 7.62524 8.31482 7.49022 8.31482 7.3317C8.31482 7.17319 8.25309 7.0411 8.12963 6.93542L3.05556 2.1272Z" fill="#187D35"/>
<path d="M13.7222 7.72798L18.8148 2.91977L18.7963 5.64971C18.7963 5.75538 18.8395 5.85225 18.9259 5.94031C19.0123 6.02838 19.1111 6.07241 19.2222 6.07241H19.537C19.6605 6.06067 19.7623 6.0225 19.8426 5.95793C19.9228 5.89335 19.9691 5.80822 19.9815 5.70254V1.63405L19.9722 1.62524L19.963 1.61644L20 1.40509C20 1.28767 19.963 1.19374 19.8889 1.12329C19.8025 1.0411 19.7037 1 19.5926 1L19.3704 1.01761H19.3519L15.1111 1C15.0494 1 14.9907 1.01174 14.9352 1.03523C14.8796 1.05871 14.8333 1.08806 14.7963 1.12329C14.7593 1.15851 14.7284 1.20254 14.7037 1.25538C14.679 1.30822 14.6667 1.36399 14.6667 1.4227V1.7045C14.679 1.83366 14.7346 1.9364 14.8333 2.01272C14.9321 2.08904 15.0432 2.1272 15.1667 2.1272H17.963L12.8889 6.93542C12.7654 7.0411 12.7037 7.17319 12.7037 7.3317C12.7037 7.49022 12.7654 7.62231 12.8889 7.72798C13.0988 7.93933 13.3395 7.96869 13.6111 7.81605C13.6481 7.78082 13.6852 7.75147 13.7222 7.72798ZM7.2963 12.272L2.2037 17.0802L2.22222 14.3503C2.22222 14.2446 2.17901 14.1477 2.09259 14.0597C2.00617 13.9716 1.90741 13.9276 1.7963 13.9276H1.46296C1.41358 13.9393 1.36111 13.954 1.30556 13.9716C1.25 13.9892 1.20062 14.0127 1.15741 14.0421C1.1142 14.0714 1.08333 14.1096 1.06481 14.1566C1.0463 14.2035 1.03086 14.2505 1.01852 14.2975V18.3659L1.02778 18.3748L1.03704 18.3836L1 18.5949C1 18.6536 1.00926 18.7065 1.02778 18.7534C1.0463 18.8004 1.07407 18.8415 1.11111 18.8767C1.19753 18.9589 1.2963 19 1.40741 19L1.62963 18.9824H1.64815L5.90741 19C6.03086 19 6.1358 18.9589 6.22222 18.8767C6.30864 18.7945 6.35185 18.6947 6.35185 18.5773V18.2955C6.33951 18.1663 6.28395 18.0636 6.18519 17.9873C6.08642 17.911 5.97531 17.8728 5.85185 17.8728H3.05556L8.12963 13.0646C8.19136 13.0059 8.23765 12.9442 8.26852 12.8796C8.29938 12.8151 8.31482 12.7446 8.31482 12.6683C8.31482 12.592 8.29938 12.5186 8.26852 12.4481C8.23765 12.3777 8.19136 12.319 8.12963 12.272C8.05556 12.2016 7.96914 12.1517 7.87037 12.1223C7.77161 12.093 7.66975 12.093 7.56482 12.1223C7.45988 12.1517 7.37037 12.2016 7.2963 12.272ZM19.9815 18.3659V14.2975C19.9691 14.1918 19.9228 14.1067 19.8426 14.0421C19.7623 13.9775 19.6605 13.9393 19.537 13.9276H19.2222C19.1111 13.9276 19.0123 13.9687 18.9259 14.0509C18.8395 14.1331 18.7963 14.2329 18.7963 14.3503L18.8148 17.0802L13.7222 12.272C13.6481 12.2016 13.5586 12.1517 13.4537 12.1223C13.3488 12.093 13.2469 12.093 13.1481 12.1223C13.0494 12.1517 12.963 12.2016 12.8889 12.272C12.7654 12.3777 12.7037 12.5098 12.7037 12.6683C12.7037 12.8268 12.7654 12.9589 12.8889 13.0646L17.963 17.8728H15.1667C15.0802 17.8728 15.0031 17.8875 14.9352 17.9168C14.8673 17.9462 14.8086 17.9961 14.7593 18.0665C14.7099 18.137 14.679 18.2133 14.6667 18.2955V18.5773C14.6667 18.6595 14.6883 18.7329 14.7315 18.7975C14.7747 18.862 14.8272 18.9119 14.8889 18.9472C14.9506 18.9824 15.0247 19 15.1111 19L19.3519 18.9824H19.3704L19.5926 19C19.7037 19 19.8025 18.9589 19.8889 18.8767C19.963 18.8063 20 18.7123 20 18.5949L19.963 18.3836H19.9815V18.3659ZM3.05556 2.1272H5.85185C5.97531 2.1272 6.08642 2.08904 6.18519 2.01272C6.28395 1.9364 6.33951 1.83366 6.35185 1.7045V1.4227C6.35185 1.30528 6.30864 1.20548 6.22222 1.12329C6.1358 1.0411 6.03086 1 5.90741 1L1.64815 1.01761H1.62963L1.40741 1C1.2963 1 1.19753 1.0411 1.11111 1.12329C1.07407 1.15851 1.0463 1.19961 1.02778 1.24658C1.00926 1.29354 1 1.34638 1 1.40509L1.03704 1.61644H1.02778L1.01852 1.63405V5.70254C1.03086 5.80822 1.07716 5.89335 1.15741 5.95793C1.23765 6.0225 1.33951 6.06067 1.46296 6.07241H1.7963C1.87037 6.07241 1.94136 6.05186 2.00926 6.01076C2.07716 5.96967 2.12963 5.91683 2.16667 5.85225C2.2037 5.78767 2.22222 5.72016 2.22222 5.64971L2.2037 2.91977L7.2963 7.72798C7.40741 7.8454 7.5463 7.90411 7.71296 7.90411C7.87963 7.90411 8.02161 7.84834 8.13889 7.73679C8.25617 7.62524 8.31482 7.49022 8.31482 7.3317C8.31482 7.17319 8.25309 7.0411 8.12963 6.93542L3.05556 2.1272Z" stroke="#187D35" mask="url(#path-1-outside-1_2075_622)"/>
</svg>
