<svg width="309" height="125" viewBox="0 0 309 125" fill="none" xmlns="http://www.w3.org/2000/svg">
<path d="M263.493 43.1464H309V39.2863H267.174C270.322 35.1752 272.191 30.0413 272.191 24.4827C272.191 10.982 261.168 0 247.617 0C238.841 0 231.121 4.60318 226.781 11.5128C223.624 13.4718 220.95 16.1353 218.984 19.2812C215.816 21.2499 213.133 23.923 211.157 27.0787C207.999 29.0473 205.316 31.7108 203.35 34.8568C202.41 35.4455 201.519 36.092 200.676 36.7965H0V40.6566H196.937C193.722 44.7966 191.794 49.9884 191.794 55.6145C191.794 64.348 196.424 72.0296 203.36 76.3626H0V80.2227H202.759C196.211 84.6136 191.891 92.0733 191.891 100.517C191.891 114.018 202.914 125 216.465 125C225.241 125 232.961 120.397 237.301 113.487C240.459 111.528 243.132 108.865 245.098 105.719C248.266 103.75 250.949 101.077 252.925 97.9213C256.083 95.9527 258.766 93.2892 260.732 90.1432C264.481 87.8078 267.542 84.4881 269.566 80.5508H308.99V76.6907H271.155C271.707 74.9344 272.075 73.1008 272.211 71.1997H308.99V67.3396H272.191C272.037 65.4385 271.649 63.605 271.078 61.8486H308.99V57.9885H269.45C268.385 55.9716 267.038 54.1284 265.479 52.4975H309V48.6374H260.723C260.142 48.2707 259.551 47.9233 258.94 47.6145C259.56 46.8617 260.132 46.0704 260.645 45.2405C261.653 44.6132 262.602 43.9087 263.503 43.1464H263.493ZM257.904 87.3253C257.4 88.2325 256.819 89.0913 256.16 89.902C256.296 89.3036 256.393 88.6957 256.47 88.078C256.606 87.0551 256.674 86.0129 256.674 84.9514C256.674 75.4748 251.24 67.2431 243.316 63.1803C243.926 62.4276 244.488 61.6363 245.002 60.816C246.183 60.0826 247.297 59.2527 248.334 58.3359C255.56 61.5591 260.606 68.7872 260.606 77.1732C260.606 80.8596 259.628 84.3241 257.904 87.3253ZM240.846 103.644C240.933 102.978 240.991 102.312 241.02 101.627C241.04 101.26 241.05 100.894 241.05 100.517C241.05 99.5908 241.001 98.6644 240.895 97.7669C240.691 95.9527 240.294 94.206 239.703 92.5365C239.035 90.5678 238.105 88.715 236.962 87.0165C235.15 84.2758 232.777 81.9115 230.017 80.0973C229.716 79.9043 229.416 79.7113 229.106 79.5279C228.845 79.3639 228.583 79.2094 228.312 79.0647C227.876 78.8234 227.421 78.5918 226.956 78.3795C226.733 78.2734 226.52 78.1672 226.297 78.0707C226.278 78.0611 226.249 78.0514 226.229 78.0418C228.602 76.9995 230.782 75.6002 232.7 73.8921C239.073 76.7293 243.752 82.6932 244.769 89.8054C244.914 90.7608 244.982 91.7355 244.982 92.7295C244.982 93.0672 244.982 93.3954 244.953 93.7235C244.905 94.9394 244.74 96.1264 244.469 97.2844C244.14 98.7416 243.655 100.131 243.035 101.453C242.803 101.945 242.551 102.428 242.28 102.901C241.776 103.798 241.195 104.657 240.536 105.468C240.672 104.86 240.769 104.262 240.846 103.644ZM248.653 95.8562C248.741 95.2 248.799 94.5341 248.828 93.8489C248.847 93.4822 248.857 93.1058 248.857 92.7295C248.857 91.8031 248.808 90.8863 248.702 89.9888C247.772 81.6799 242.657 74.6159 235.499 70.9585C236.119 70.2057 236.681 69.4144 237.204 68.5845C238.386 67.8511 239.49 67.0308 240.517 66.1044C247.753 69.3276 252.799 76.5653 252.799 84.9514C252.799 86.5147 252.625 88.0394 252.286 89.5063C251.956 90.9635 251.472 92.3531 250.852 93.6752C250.629 94.1674 250.378 94.6402 250.106 95.1035C249.593 96.0202 249.002 96.8984 248.343 97.7187C248.469 97.1107 248.576 96.4834 248.653 95.8562ZM223.236 21.3561C224.563 20.7384 225.958 20.2559 227.421 19.9278C228.893 19.5901 230.423 19.4164 231.993 19.4164C243.413 19.4164 252.702 28.671 252.702 40.0486C252.702 41.612 252.528 43.1367 252.189 44.6036C252.141 44.8352 252.082 45.0668 252.015 45.2887C251.705 46.495 251.278 47.6627 250.755 48.7725C250.726 48.84 250.697 48.9076 250.658 48.9751C250.465 49.3998 250.242 49.8051 250.009 50.2007C249.496 51.1175 248.905 51.9957 248.247 52.8159C248.372 52.208 248.479 51.5807 248.557 50.9534C248.644 50.2972 248.702 49.6314 248.731 48.9462C248.731 48.8979 248.741 48.84 248.731 48.7918C248.75 48.4733 248.76 48.1549 248.76 47.8268C248.76 46.9003 248.711 45.9836 248.605 45.0861C248.595 45.0282 248.595 44.9799 248.586 44.922C247.249 33.6795 238.24 24.753 226.936 23.4984C226.036 23.3923 225.115 23.344 224.185 23.344C223.808 23.344 223.43 23.3537 223.062 23.373C222.374 23.4019 221.706 23.4598 221.047 23.5467C220.417 23.6239 219.788 23.73 219.177 23.8555C220.001 23.1993 220.882 22.6106 221.803 22.0991C222.267 21.8289 222.742 21.5877 223.236 21.3561ZM215.429 29.1438C216.756 28.5262 218.151 28.0437 219.613 27.7156C220.776 27.4454 221.967 27.2813 223.188 27.2331C223.517 27.2138 223.856 27.2041 224.185 27.2041C225.183 27.2041 226.161 27.2717 227.12 27.4164C236.187 28.6999 243.384 35.8701 244.672 44.9027C244.682 44.9606 244.692 45.0282 244.701 45.0861C244.827 45.9836 244.885 46.9003 244.885 47.8268C244.885 48.1645 244.876 48.4926 244.856 48.8207C244.856 48.869 244.856 48.9172 244.847 48.9655C244.798 50.1332 244.633 51.2719 244.372 52.3817C244.324 52.6133 244.265 52.8449 244.198 53.0669C243.888 54.2731 243.461 55.4408 242.938 56.5506C242.909 56.6182 242.871 56.6857 242.832 56.7533C242.638 57.1779 242.415 57.5928 242.183 57.9981C241.679 58.8956 241.098 59.7545 240.439 60.5651C240.575 59.9572 240.672 59.3588 240.749 58.7412C240.836 58.0753 240.895 57.4095 240.924 56.7243C240.924 56.6761 240.933 56.6182 240.924 56.5699C240.943 56.2514 240.953 55.9426 240.953 55.6145C240.953 54.6881 240.904 53.7617 240.798 52.8642C240.788 52.8063 240.788 52.758 240.778 52.7001C240.672 51.822 240.526 50.9631 240.323 50.1235C240.139 49.2743 239.897 48.4444 239.606 47.6338C239.471 47.2284 239.316 46.8231 239.151 46.4275C238.541 44.9027 237.775 43.4648 236.865 42.1138C235.054 39.3731 232.68 37.0088 229.92 35.1946C228.215 34.0655 226.355 33.139 224.379 32.4635C222.703 31.8845 220.95 31.4792 219.129 31.2765C218.228 31.1704 217.298 31.1221 216.368 31.1221C215.991 31.1221 215.623 31.1318 215.254 31.1511C214.567 31.18 213.889 31.2379 213.23 31.3248C212.61 31.402 212 31.4985 211.399 31.6336C212.213 30.9774 213.075 30.408 213.976 29.8965C214.451 29.6263 214.935 29.3754 215.429 29.1438ZM256.373 43.1753C256.509 42.1524 256.577 41.1102 256.577 40.0486C256.577 26.5479 245.544 15.5562 231.993 15.5562C230.927 15.5562 229.881 15.6238 228.854 15.7589C228.234 15.8361 227.634 15.9326 227.024 16.0677C227.837 15.4115 228.699 14.8325 229.61 14.3307C232.622 12.6129 236.1 11.6382 239.8 11.6382C251.22 11.6382 260.51 20.8928 260.51 32.2705C260.51 35.9569 259.531 39.4214 257.807 42.4226C257.303 43.3297 256.722 44.1886 256.064 44.9992C256.199 44.4009 256.296 43.7929 256.373 43.1753ZM247.617 3.86011C259.028 3.86011 268.317 13.1147 268.317 24.4827C268.317 29.2789 266.66 33.7084 263.871 37.2211C264.21 35.6192 264.384 33.969 264.384 32.2705C264.384 18.7601 253.361 7.77812 239.8 7.77812C238.105 7.77812 236.439 7.95183 234.831 8.28959C238.357 5.51031 242.793 3.86011 247.617 3.86011ZM195.668 55.6145C195.668 50.8183 197.325 46.3889 200.115 42.8762C201.761 40.7724 203.824 38.9968 206.178 37.6747C206.643 37.3948 207.118 37.1536 207.612 36.9219C208.929 36.3043 210.334 35.8218 211.796 35.4937C212.959 35.2235 214.15 35.0594 215.38 35.0112C215.71 34.9919 216.039 34.9822 216.368 34.9822C217.366 34.9822 218.354 35.0498 219.313 35.1946C222.142 35.5902 224.786 36.5649 227.12 37.9835C229.949 39.7012 232.341 42.0848 234.066 44.9027C234.676 45.9064 235.209 46.9679 235.635 48.068C236.129 49.3033 236.507 50.5867 236.739 51.9185C236.787 52.1694 236.826 52.4299 236.865 52.6808C236.875 52.7484 236.884 52.8063 236.894 52.8739C237.02 53.7713 237.078 54.6881 237.078 55.6145C237.078 55.9426 237.068 56.2707 237.049 56.5989C237.049 56.6471 237.049 56.6954 237.049 56.7436C237.001 57.9209 236.836 59.0597 236.574 60.1695C236.526 60.4011 236.468 60.623 236.41 60.845C236.09 62.0609 235.664 63.2286 235.141 64.3384C235.112 64.4059 235.083 64.4735 235.044 64.5314C234.84 64.956 234.627 65.3613 234.385 65.7666C233.639 67.0791 232.758 68.295 231.741 69.4048C230.966 70.2829 230.094 71.0839 229.164 71.8077C228.864 72.0489 228.554 72.2709 228.244 72.4929C225.445 74.4519 222.151 75.745 218.587 76.1117H218.558C217.841 76.1986 217.114 76.2372 216.378 76.2372C216.039 76.2372 215.7 76.2275 215.361 76.2082C214.993 76.1986 214.625 76.1696 214.266 76.131H214.247C213.627 76.0635 213.027 75.9766 212.426 75.8512C211.457 75.6678 210.518 75.4169 209.598 75.0984C209.036 74.9054 208.493 74.6931 207.961 74.4519C200.725 71.2287 195.678 64.0006 195.678 55.6145H195.668ZM216.465 121.14C205.055 121.14 195.765 111.885 195.765 100.517C195.765 95.7211 197.422 91.2916 200.211 87.7789C201.858 85.6751 203.921 83.8995 206.275 82.5774C206.74 82.2975 207.215 82.0563 207.709 81.8247C209.026 81.2071 210.431 80.7245 211.893 80.3964C212.668 80.2131 213.463 80.078 214.266 80.0008H214.276C214.673 79.9622 215.07 79.9332 215.477 79.9139C215.807 79.8946 216.136 79.885 216.465 79.885C216.833 79.885 217.192 79.8946 217.55 79.9139C217.841 79.9236 218.131 79.9525 218.412 79.9718C218.48 79.9815 218.538 79.9911 218.596 79.9911H218.625C218.887 80.0201 219.148 80.0587 219.41 80.0973C222.238 80.4929 224.883 81.4676 227.217 82.8862C230.046 84.604 232.438 86.9876 234.162 89.8054C235.586 92.1408 236.565 94.7657 236.962 97.5836C237.107 98.5389 237.175 99.5233 237.175 100.517C237.175 100.845 237.165 101.173 237.146 101.502C237.097 102.727 236.933 103.914 236.662 105.072C236.332 106.529 235.848 107.929 235.228 109.241C234.995 109.733 234.753 110.206 234.472 110.669C233.145 113.014 231.363 115.07 229.251 116.71C225.726 119.49 221.289 121.14 216.465 121.14ZM259.502 52.4589V52.4975H259.56C264.907 56.2321 268.414 62.3987 268.414 69.3855C268.414 74.1817 266.757 78.6111 263.968 82.1238C264.307 80.5219 264.481 78.8717 264.481 77.1732C264.481 67.6967 259.057 59.465 251.133 55.4022C251.743 54.6399 252.305 53.8485 252.828 53.0186C254 52.2852 255.105 51.4649 256.131 50.5481C257.323 51.0789 258.446 51.7255 259.502 52.4589Z" fill="#187D35"/>
</svg>
