<svg width="133" height="112" viewBox="0 0 133 112" fill="none" xmlns="http://www.w3.org/2000/svg">
<path fill-rule="evenodd" clip-rule="evenodd" d="M96.9187 20.6158C90.2123 17.7381 83.5059 14.8519 76.8079 11.9657C67.6361 8.01086 58.4558 4.05603 49.284 0.101194C48.9474 -0.0418528 48.6781 -0.0250238 48.3499 0.118023C32.2361 7.03478 16.1223 13.9431 0.00841454 20.843V28.9042C0.496458 29.1145 0.984501 29.3249 1.46413 29.5353C2.10363 29.8129 2.73473 30.0906 3.37423 30.3683L8.911 32.8001L8.95307 32.8169H8.96148C19.9593 37.6469 30.9655 42.4768 41.9633 47.3068C42.8468 47.6938 43.7219 48.0809 44.6055 48.4596H44.6139C44.6896 48.1146 44.7738 47.7696 44.8579 47.4246C44.9589 47.0543 45.0514 46.6841 45.1524 46.3054C45.1524 46.3054 45.1552 46.3026 45.1608 46.297H45.1524C44.2857 45.9184 43.4274 45.5397 42.5607 45.1611C29.2658 39.3214 15.9624 33.4901 2.65899 27.6672C2.29717 27.5074 2.17937 27.3306 2.18778 26.9352C2.21302 26.0853 2.20461 25.227 2.20461 24.3351V23.2328L10.7201 26.9099L10.7874 26.9436C21.8273 31.7146 32.8504 36.4688 43.8734 41.2231C44.7149 41.5849 45.5479 41.9467 46.3894 42.3085H46.3978C46.4398 42.1823 46.4819 42.0561 46.524 41.9215C46.6586 41.5596 46.7933 41.2062 46.9279 40.8444C47.0036 40.6425 47.0793 40.4489 47.1635 40.247H47.1551C46.322 39.8936 45.4974 39.5317 44.6644 39.1699C33.4983 34.3652 22.349 29.5437 11.1913 24.7221H11.1745L4.33349 21.7602C4.24934 21.7266 4.17361 21.6845 4.04739 21.634L3.91276 21.5751C4.4008 21.3647 4.88043 21.1544 5.35165 20.9524H5.36848C6.21834 20.5822 7.04297 20.2204 7.86759 19.8669C10.8884 18.5795 13.9008 17.2837 16.9132 15.9878H16.9469L16.9637 15.971C27.4314 11.4777 37.8991 6.9927 48.3668 2.49092C48.6949 2.35629 48.9642 2.34788 49.3008 2.49092C56.6635 5.67162 64.0262 8.8439 71.3974 12.0078C73.8797 13.0848 76.3619 14.1535 78.8527 15.2221C78.8695 15.2305 78.8947 15.239 78.9116 15.2474C78.9284 15.2474 78.9536 15.2558 78.9705 15.2726H78.9789C78.9789 15.2726 78.9873 15.2726 78.9957 15.281C79.1976 15.3568 79.408 15.4409 79.6184 15.5335C84.827 17.7633 90.044 19.9763 95.2694 22.1894C95.9931 22.4923 96.7251 22.8036 97.4572 23.115C97.4572 22.5596 97.4572 22.0042 97.4656 21.4489C97.474 20.9945 97.3394 20.7925 96.9187 20.6158V20.6158ZM68.1241 85.5677C66.9713 86.081 65.8269 86.5774 64.6742 87.0823C65.6082 87.4778 66.5338 87.8648 67.4594 88.2603C68.6037 87.7555 69.7565 87.2506 70.9009 86.7457C69.9753 86.3502 69.0497 85.9632 68.1241 85.5677V85.5677ZM53.7268 79.4924C53.4071 79.3746 53.0873 79.2484 52.7844 79.1137H52.776C51.6737 79.6018 50.563 80.0814 49.4607 80.5694C49.3933 80.6031 49.3176 80.6283 49.2503 80.662C48.9137 80.8051 48.6276 80.8471 48.2658 80.6872C34.8783 74.8055 21.4907 68.9321 8.09479 63.0588C6.18469 62.2173 4.27459 61.3927 2.36449 60.5597H2.35607C1.57352 60.2147 0.790967 59.8697 0 59.5331V75.1421C0.0589018 75.1673 0.109389 75.1841 0.168291 75.2094C0.302923 75.2515 0.429142 75.3019 0.55536 75.3524L5.36006 77.4645H5.38531V77.4813C14.0523 81.2847 22.7193 85.0796 31.3946 88.883C32.5895 89.4047 33.7844 89.9348 34.9792 90.4565H34.9877C35.2401 90.3556 35.4841 90.2546 35.7281 90.162C36.4434 89.8759 37.1502 89.5898 37.857 89.3121H37.8486C36.6537 88.7904 35.4673 88.2687 34.2724 87.7386C26.2197 84.2214 18.1754 80.6872 10.1227 77.1616L2.59168 73.8546C2.35607 73.7537 2.17937 73.6779 2.17937 73.3414C2.18778 70.4215 2.18778 67.4933 2.18778 64.565V63.1009C2.18778 63.1009 2.19619 63.042 2.20461 62.9999C2.20461 62.9746 2.21302 62.9326 2.22144 62.8905C2.97875 63.2187 3.72764 63.5468 4.47654 63.875C5.42738 64.2873 6.36981 64.6996 7.31223 65.1119L13.051 67.6363L13.1014 67.6531L13.1351 67.67C24.4779 72.6429 35.8375 77.6328 47.1803 82.6142C47.5421 82.7741 47.8956 82.9255 48.2574 83.0854C48.5856 83.2369 48.8548 83.2284 49.183 83.0854C51.3287 82.143 53.4828 81.2005 55.6285 80.2581C55.4182 80.1655 55.2162 80.073 55.0058 79.9888C54.5851 79.8205 54.156 79.6523 53.7184 79.4924H53.7268ZM92.6441 76.3958C92.6273 76.1013 92.6188 75.8152 92.6188 75.5207V75.4618C92.6188 75.3524 92.6188 75.243 92.6273 75.1421C92.6188 75.0327 92.6272 74.9317 92.6357 74.8223H92.6273C91.7185 75.2262 90.8013 75.6301 89.8925 76.0256C89.8925 76.0256 89.8841 76.0256 89.8841 76.034C89.8925 76.8166 89.943 77.5907 90.044 78.3648H90.0524C90.9359 77.9693 91.811 77.5823 92.6946 77.1952C92.6693 76.9344 92.6525 76.6651 92.6441 76.3958V76.3958ZM95.8669 60.2063C94.6804 60.728 93.494 61.2497 92.2991 61.7714C92.2823 61.805 92.2738 61.8387 92.2654 61.8723C92.2149 62.0154 92.1729 62.1584 92.1224 62.3099C92.0635 62.495 92.0046 62.6801 91.9541 62.8652L91.9288 62.941C91.912 62.9999 91.8952 63.0504 91.8784 63.1093C91.8699 63.1513 91.8531 63.185 91.8447 63.2271C91.8363 63.2691 91.8195 63.3028 91.811 63.3449C91.8026 63.3701 91.8026 63.387 91.7942 63.4122C91.7353 63.5973 91.6764 63.7908 91.6343 63.976C91.6175 64.0433 91.6007 64.119 91.5754 64.1863C91.567 64.1947 91.567 64.2116 91.567 64.22C91.5502 64.2621 91.5418 64.3125 91.5249 64.363C91.5081 64.4135 91.4997 64.4724 91.4829 64.5313C92.5179 64.0769 93.5529 63.6226 94.5878 63.1682C94.6047 63.1598 94.6215 63.1513 94.6383 63.1429C94.6636 63.1345 94.6804 63.1261 94.7056 63.1177C94.7393 63.1009 94.7814 63.084 94.8234 63.0672H94.8319C95.1011 62.2426 95.3872 61.4264 95.707 60.627C95.7322 60.5597 95.7659 60.4839 95.7911 60.4082C95.8164 60.3409 95.85 60.2736 95.8837 60.1978C95.8753 60.1978 95.8753 60.2063 95.8669 60.2063ZM85.0121 80.0477C84.9953 79.8879 84.9868 79.7196 84.9784 79.5597C84.9616 79.282 84.9532 79.0043 84.9448 78.7267C84.9364 78.55 84.9364 78.3817 84.9364 78.205C84.0024 78.6089 83.0683 79.0212 82.1343 79.4335H82.1259C82.1596 80.1992 82.2269 80.9733 82.3194 81.7475H82.3279C83.2366 81.3436 84.137 80.9481 85.0458 80.5526C85.0289 80.3843 85.0205 80.216 85.0121 80.0477V80.0477ZM43.8313 52.305C42.931 51.9095 42.0222 51.514 41.1219 51.1186C27.4146 45.1022 13.7073 39.0858 0.00841454 33.0778V42.1318C0.0757309 42.1571 0.151462 42.1823 0.218778 42.2076C0.353411 42.2496 0.479629 42.3001 0.605847 42.3506C4.13995 43.8989 7.67406 45.4472 11.1998 46.9954C20.927 51.2616 30.6458 55.5278 40.373 59.7771C41.307 60.1894 42.241 60.5933 43.175 61.0056H43.1834C43.1498 60.2147 43.1498 59.4237 43.175 58.6327H43.1666C42.2494 58.2204 41.3238 57.8165 40.4066 57.4126C27.8353 51.8843 15.264 46.3728 2.68424 40.8612C2.30558 40.6929 2.17937 40.5078 2.18778 40.1039C2.20461 39.2541 2.20461 38.4042 2.20461 37.5291C2.19619 37.1757 2.19619 36.8138 2.19619 36.452L2.41497 36.5446C2.7768 36.696 3.11338 36.8391 3.44996 36.9821H3.45838C15.8951 42.4347 28.3402 47.8958 40.7769 53.3568C41.6856 53.7607 42.586 54.1562 43.4948 54.5517H43.5032C43.5284 54.3329 43.5621 54.0973 43.5873 53.8617C43.621 53.6261 43.663 53.3905 43.6967 53.1633C43.7388 52.8772 43.7893 52.5911 43.8398 52.3134H43.8313V52.305ZM94.9328 42.1402C94.5289 42.6535 94.125 43.1752 93.738 43.6969C94.8319 43.2173 95.9342 42.7377 97.0281 42.258C97.3478 42.1234 97.4572 41.9635 97.4572 41.6101C97.4572 40.8023 97.4488 40.0029 97.4572 39.1951C96.5821 40.1376 95.7406 41.1221 94.9328 42.1402ZM48.7623 76.4295C48.5435 76.2191 48.3415 76.0172 48.1396 75.79C48.0723 75.7227 48.0134 75.6554 47.9629 75.5796C47.7441 75.3608 47.5674 75.1421 47.3991 74.9065C47.1803 74.6372 46.9868 74.3595 46.7933 74.0734C46.7933 74.065 46.7848 74.065 46.7848 74.065C46.5997 73.7789 46.423 73.4844 46.2463 73.1815C46.2463 73.1815 46.2407 73.1787 46.2295 73.1731C44.9336 72.6009 43.6294 72.0287 42.3336 71.4565C29.0975 65.6505 15.8614 59.8444 2.61692 54.0468C2.29717 53.9038 2.18778 53.7355 2.18778 53.3821C2.21302 52.507 2.20461 51.6318 2.20461 50.7231V49.6376C2.53278 49.7806 2.85253 49.9237 3.17228 50.0583C3.76971 50.3192 4.35032 50.5716 4.93092 50.8325C16.9637 56.1084 29.0049 61.3927 41.0377 66.677C42.0979 67.1398 43.1666 67.6111 44.2268 68.0739C44.1006 67.6363 43.9912 67.1987 43.8987 66.7528C43.8061 66.3152 43.7135 65.8692 43.6462 65.4317H43.6378C42.6449 64.9857 41.6436 64.5482 40.6422 64.119C32.4296 60.5008 24.2255 56.8993 16.0045 53.2979C12.7312 51.8674 9.45794 50.437 6.18469 48.9981C4.12312 48.0977 2.06156 47.1974 0.00841454 46.297V55.3426C0.0589018 55.3595 0.117804 55.3763 0.168291 55.3931C0.286094 55.4268 0.403898 55.4605 0.513287 55.5109C14.9274 61.8218 29.3415 68.1412 43.7472 74.4773C45.2618 75.1337 46.768 75.7984 48.2826 76.4631C48.5014 76.5641 48.6865 76.5978 48.8885 76.5557C48.838 76.5052 48.8043 76.4716 48.7623 76.4295V76.4295ZM97.4488 51.3121C97.0281 51.9179 96.6242 52.5406 96.2455 53.1717C96.0688 53.4578 95.9005 53.7439 95.7406 54.03C95.5723 54.3161 95.4125 54.6022 95.261 54.8883C95.1095 55.1828 94.9581 55.4689 94.8066 55.7634C94.6552 56.0579 94.5121 56.3524 94.3691 56.6469C95.2358 56.2683 96.1109 55.8812 96.9776 55.5025C97.331 55.3511 97.4656 55.1828 97.4572 54.7789C97.4488 53.6261 97.4488 52.4733 97.4488 51.3121V51.3121ZM89.8589 49.6208H89.8505C89.7663 49.7638 89.6822 49.9153 89.6064 50.0583C89.5812 50.1004 89.5559 50.1341 89.5391 50.1761C89.4634 50.2939 89.3961 50.4201 89.3372 50.5379C89.0174 51.1017 88.7229 51.6571 88.4368 52.2293C88.3443 52.406 88.2517 52.5827 88.1675 52.7594H88.176C89.5475 52.1535 90.9275 51.5477 92.2991 50.9418H92.3075C92.459 50.6642 92.6188 50.3865 92.7787 50.1088C92.8208 50.0415 92.8629 49.9742 92.8965 49.9069C93.0227 49.6965 93.149 49.4861 93.2752 49.2842C93.6033 48.7372 93.9483 48.1987 94.3102 47.6686C92.8292 48.3165 91.3398 48.9644 89.8589 49.6208V49.6208Z" fill="#187D35"/>
<path d="M84.9036 60.8121H84.8952C84.8278 61.0225 84.7605 61.2244 84.6932 61.4348C84.2977 62.697 83.9443 63.9844 83.6414 65.2803C83.6161 65.3896 83.5909 65.4906 83.5741 65.6C83.6919 65.5411 83.8097 65.4906 83.9275 65.4401H83.9527L84.0453 65.3896C84.9709 64.9857 85.9049 64.5734 86.8305 64.1695H86.8389C86.9651 63.7152 87.0998 63.2523 87.2428 62.798C87.47 62.0659 87.714 61.3423 87.9665 60.6102C88.0927 60.2484 88.2273 59.8865 88.3619 59.5247C88.3956 59.4321 88.4377 59.3312 88.4713 59.2386C87.2849 59.7603 86.09 60.282 84.9036 60.8121V60.8121ZM131.865 43.3015C130.216 36.8896 126.673 32.2448 120.295 29.6447C106.983 24.2173 93.8314 18.4029 80.5364 12.9418C79.3752 12.4622 78.1046 12.1424 76.8088 11.9657C75.6223 11.7974 74.4191 11.747 73.2747 11.8059C72.6352 11.8395 72.0125 11.9068 71.3982 12.0078C66.3495 12.7904 62.1507 15.6008 58.3473 19.0339C52.0869 24.6885 47.7113 31.5295 44.6652 39.1699C44.3791 39.8515 44.1183 40.5331 43.8743 41.2231C43.5124 42.2076 43.1759 43.2005 42.8561 44.2018C42.7551 44.5216 42.6542 44.8413 42.5616 45.1611C42.3512 45.8763 42.1493 46.5916 41.9642 47.3068C41.636 48.569 41.3583 49.8396 41.1227 51.1186C40.9881 51.8591 40.8703 52.608 40.7777 53.3569C40.5926 54.7032 40.4664 56.0579 40.4075 57.4127C40.3738 58.2036 40.357 58.9862 40.3738 59.7771C40.3822 61.2244 40.4748 62.6717 40.6431 64.1275C40.7188 64.7501 40.8114 65.3812 40.9124 66.0039C40.946 66.2311 40.9881 66.4583 41.0386 66.6855C41.3415 68.3431 41.7622 69.9419 42.3344 71.4649C42.7299 72.5168 43.1927 73.5265 43.7481 74.4858C44.783 76.3117 46.121 77.961 47.8628 79.4083C48.3508 79.8122 48.8725 80.174 49.4615 80.5695C49.7897 80.7967 50.1347 81.0323 50.5133 81.2931C49.4026 81.7307 48.2919 82.1767 47.1896 82.6142C42.8309 84.3392 38.5479 86.0473 34.2817 87.7387C33.3224 88.1173 32.3632 88.5044 31.4039 88.883C29.6285 89.5899 27.8614 90.2883 26.0859 90.9951C26.1028 91.155 26.1112 91.3233 26.128 91.4831C26.3047 91.5673 26.473 91.6598 26.6581 91.744C42.0904 98.2821 57.5142 104.837 72.9633 111.333C73.5608 111.585 74.4443 111.51 75.067 111.257C85.0382 107.26 94.9674 103.188 104.93 99.1824C109.533 97.3312 113.488 94.5629 116.929 91.0203C124.502 83.2285 129.13 73.8547 131.63 63.3954C133.22 56.7479 133.59 50.0163 131.865 43.3015V43.3015ZM52.1205 78.8024C50.9004 78.1882 49.8318 77.4393 48.8978 76.5642H48.8893C48.8389 76.5137 48.8052 76.48 48.7631 76.4379C48.5443 76.2276 48.3424 76.0256 48.1404 75.7984C48.0731 75.7311 48.0142 75.6638 47.9637 75.5881C47.745 75.3693 47.5683 75.1505 47.4 74.9149C47.1812 74.6456 46.9877 74.368 46.7941 74.0819C46.7941 74.0735 46.7857 74.0734 46.7857 74.0734C46.5922 73.7874 46.407 73.4844 46.2303 73.1815C45.9695 72.7187 45.7171 72.2391 45.4983 71.7342C45.3889 71.4818 45.2795 71.2209 45.1617 70.9601C45.0607 70.7076 44.9597 70.4384 44.8672 70.1691C44.6232 69.4791 44.4044 68.7807 44.2277 68.0823C44.1015 67.6447 43.9921 67.2072 43.8995 66.7612C43.7985 66.3237 43.7144 65.8777 43.6387 65.4401C43.3694 63.9676 43.2264 62.4866 43.1759 61.0057C43.1422 60.2063 43.1422 59.4153 43.1675 58.6244C43.2095 57.2696 43.3189 55.9065 43.4956 54.5517C43.5293 54.3161 43.5545 54.0889 43.5882 53.8617C43.6134 53.6345 43.6471 53.4073 43.6892 53.1717C43.7312 52.8856 43.7817 52.5911 43.8322 52.305C44.051 51.0092 44.3118 49.7218 44.6063 48.4596C44.6821 48.1146 44.7662 47.7696 44.8588 47.4246C44.9598 47.0544 45.0523 46.6841 45.1533 46.3055H45.1617V46.2886C45.2627 45.9184 45.3636 45.5482 45.473 45.1779C45.7507 44.2102 46.0536 43.251 46.3902 42.3086C46.4323 42.1823 46.4744 42.0477 46.5249 41.9215C46.6595 41.5597 46.7941 41.2063 46.9288 40.8444C46.9961 40.6425 47.0718 40.4489 47.1559 40.247C47.3495 39.7421 47.5598 39.2457 47.7702 38.7492C48.0815 38.0508 48.3929 37.3608 48.7211 36.6792C49.2091 35.6695 49.7308 34.6682 50.2862 33.6837C50.5554 33.1872 50.8415 32.6992 51.1444 32.2195C51.4305 31.7315 51.7335 31.2519 52.0448 30.7806H52.0532C53.0882 29.1903 54.2242 27.6588 55.4443 26.1779C55.4443 26.1779 55.4471 26.1751 55.4527 26.1695C55.8229 25.7235 56.2016 25.2859 56.5802 24.8484C57.346 23.9733 58.1538 23.115 59.0036 22.2904C59.4159 21.8696 59.8451 21.4573 60.2826 21.0534C60.4846 20.8683 60.6865 20.6832 60.8969 20.5065C61.0988 20.3214 61.3092 20.1531 61.5196 19.9764C61.9655 19.5893 62.4199 19.2275 62.8827 18.8825C63.3287 18.5459 63.7831 18.2261 64.2543 17.9232C66.5935 16.3918 69.1516 15.2642 72.0125 14.7173C72.4753 14.6247 72.9381 14.5658 73.3925 14.5237C73.5944 14.5069 73.7964 14.4901 73.9899 14.4817C74.1077 14.4817 74.2339 14.4733 74.3517 14.4733C74.7136 14.4648 75.067 14.4817 75.4288 14.5069C75.5214 14.5153 75.6223 14.5153 75.7149 14.5322C75.8075 14.5322 75.9 14.5406 75.9926 14.549C76.1524 14.5658 76.3123 14.5911 76.4722 14.6163C76.691 14.6416 76.9013 14.6836 77.1201 14.7341C77.5324 14.8183 77.9532 14.9276 78.3655 15.0623H78.3739C78.4664 15.0959 78.5506 15.1212 78.6432 15.1548C78.7105 15.1717 78.7862 15.1969 78.8535 15.2222C78.8703 15.2306 78.8956 15.239 78.9124 15.2474C78.9292 15.2474 78.9545 15.2558 78.9713 15.2726H78.9797C78.9797 15.2726 78.9881 15.2726 78.9966 15.2811C79.1985 15.3568 79.4089 15.4409 79.6192 15.5335C84.8278 17.7633 90.0449 19.9764 95.2703 22.1894C95.9939 22.4923 96.726 22.8037 97.4581 23.115C101.943 25.0167 106.436 26.9184 110.93 28.8201C111.418 29.0304 111.906 29.2324 112.739 29.5942C111.62 29.9644 110.829 30.2 110.055 30.4861C105.763 32.0849 102.145 34.584 98.9811 37.6469C98.695 37.9246 98.4089 38.2107 98.1312 38.4968C97.904 38.724 97.6768 38.9596 97.4581 39.2036C96.583 40.146 95.7415 41.1305 94.9337 42.1487C94.5298 42.662 94.1259 43.1837 93.7388 43.7054C93.722 43.7306 93.7052 43.7474 93.6883 43.7727C92.8806 44.8582 92.1232 45.9605 91.3996 47.0796C90.8611 47.9211 90.3394 48.7709 89.8597 49.6292H89.8513C89.7672 49.7723 89.683 49.9237 89.6073 50.0668C89.5821 50.1088 89.5568 50.1425 89.54 50.1846C89.4643 50.3024 89.3969 50.4286 89.338 50.5464C89.0183 51.1102 88.7238 51.6655 88.4377 52.2377C88.3451 52.4144 88.2526 52.5911 88.1684 52.7678C87.6551 53.786 87.1839 54.8126 86.7464 55.8476C86.4434 56.5544 86.1573 57.2612 85.8881 57.9764H85.8797C85.8208 58.1279 85.7703 58.2878 85.7198 58.4476C85.4842 59.0703 85.2654 59.7014 85.0634 60.3409C85.0045 60.5008 84.9456 60.6523 84.8952 60.8121C84.8278 61.0225 84.7605 61.2244 84.6932 61.4348C84.2977 62.697 83.9443 63.9844 83.6414 65.2803C83.6161 65.3896 83.5909 65.4906 83.5741 65.6C83.3974 66.3405 83.2375 67.0894 83.1029 67.8383C83.0776 67.9729 83.044 68.1075 83.0187 68.2422C82.8252 69.2351 82.6653 70.2364 82.5307 71.2462C82.1604 73.9893 81.9837 76.724 82.1268 79.4335C82.1604 80.1992 82.2277 80.9734 82.3203 81.7475C82.5223 83.4977 82.8672 85.2311 83.3805 86.9729C83.8938 88.7063 84.5754 90.4397 85.4505 92.1647C85.4505 92.1647 85.4589 92.1647 85.4589 92.1731C85.6188 92.4929 85.7871 92.8126 85.9638 93.1324C80.8141 90.953 75.8243 88.8326 70.9018 86.7457C69.9762 86.3503 69.0506 85.9632 68.125 85.5677C66.1307 84.7178 64.1365 83.8764 62.1507 83.0434C61.6037 82.8077 61.0483 82.5721 60.493 82.3365C59.9376 82.1009 59.3739 81.8653 58.8185 81.6297C57.977 81.2763 57.1356 80.8976 56.2941 80.5274C56.0754 80.4348 55.865 80.3423 55.6462 80.2581H55.6378C55.4274 80.1656 55.2255 80.073 55.0151 79.9889C54.5944 79.8206 54.1653 79.6523 53.7277 79.4924C53.4079 79.3746 53.0882 79.2484 52.7853 79.1138H52.7769C52.5497 79.0128 52.3309 78.9118 52.1205 78.8024V78.8024ZM93.9155 100.579C87.6972 103.112 81.4704 105.662 75.2269 108.136C74.5537 108.405 73.5944 108.514 72.9633 108.245C59.9545 102.801 46.9792 97.2808 34.004 91.7776C33.8189 91.7019 33.6506 91.5757 33.0616 91.2307C33.7095 90.9698 34.349 90.709 34.9885 90.4566H34.9969C35.2494 90.3556 35.4934 90.2546 35.7374 90.1621C36.4527 89.876 37.1595 89.5899 37.8663 89.3122C38.0346 89.2365 38.2029 89.1691 38.3712 89.1018C43.6303 86.9982 48.7295 84.9534 53.8371 82.9676C54.3756 82.7657 55.2002 83.077 55.8145 83.3379C58.768 84.5832 61.7215 85.8286 64.675 87.0823C65.609 87.4778 66.5346 87.8649 67.4602 88.2604C75.6644 91.7272 83.8602 95.2108 92.0643 98.686C93.0068 99.0899 93.9576 99.4854 95.102 99.9734C94.6139 100.226 94.2774 100.428 93.9155 100.579V100.579ZM130.182 53.0287C130.174 53.2727 130.165 53.5083 130.149 53.7523C130.157 53.8701 130.149 53.9964 130.14 54.1142C130.14 54.232 130.14 54.3498 130.123 54.4676C130.106 54.7284 130.09 54.9809 130.064 55.2417C130.064 55.3259 130.056 55.4016 130.048 55.4857V55.5026C130.048 55.5026 130.056 55.5446 130.048 55.5615C130.031 55.7298 130.022 55.898 130.006 56.0579C129.98 56.3608 129.947 56.6638 129.913 56.9583C129.905 57.0256 129.896 57.0845 129.888 57.1518C129.871 57.3369 129.846 57.5136 129.82 57.6988C129.778 58.0522 129.728 58.4056 129.669 58.759C129.467 60.0464 129.215 61.3338 128.92 62.6128C128.146 65.9871 126.985 69.2603 126.37 71.3303C125.773 72.6346 125.167 73.9136 124.544 75.1421C124.292 75.6386 124.048 76.1266 123.787 76.6062C123.493 77.17 123.198 77.7254 122.887 78.2639C122.592 78.8108 122.281 79.3494 121.961 79.8795C121.28 81.0239 120.564 82.1346 119.815 83.2032C119.597 83.523 119.378 83.8427 119.142 84.1541C118.932 84.4402 118.722 84.7347 118.503 85.0124C118.478 85.046 118.452 85.0713 118.436 85.1049C118.149 85.4667 117.863 85.8286 117.577 86.1736C117.308 86.5017 117.039 86.8299 116.761 87.1412C116.711 87.1917 116.66 87.2506 116.61 87.3095C116.332 87.6293 116.046 87.9406 115.751 88.2435C115.701 88.3109 115.633 88.3782 115.566 88.4455C115.272 88.7568 114.96 89.0682 114.649 89.3711C114.253 89.7666 113.841 90.1452 113.42 90.5239C113.084 90.8184 112.747 91.1129 112.402 91.399C111.502 92.1479 110.56 92.8547 109.567 93.5195C109.323 93.6877 109.07 93.856 108.818 94.0159C108.54 94.1926 108.262 94.3609 107.976 94.5208C107.412 94.849 106.823 95.1603 106.218 95.438C105.612 95.7241 104.997 95.9765 104.375 96.2121C103.752 96.4477 103.121 96.6581 102.49 96.8348C102.17 96.9273 101.859 97.0115 101.539 97.0872C100.252 97.3986 98.9979 97.5164 97.7946 97.4575C97.6684 97.449 97.5338 97.4406 97.4076 97.4238C96.7849 97.3733 96.1791 97.2723 95.5816 97.1125C95.4302 97.0788 95.2703 97.0283 95.1188 96.9862C95.0683 96.9694 95.0094 96.9526 94.9505 96.9273C94.7991 96.8853 94.656 96.8348 94.513 96.7759C94.1511 96.6412 93.7977 96.4898 93.4527 96.3215C93.3265 96.2542 93.2003 96.1869 93.0741 96.1195C93.0152 96.0859 92.9479 96.0522 92.889 96.0102C92.7543 95.9344 92.6281 95.8587 92.4935 95.7745C92.1737 95.581 91.8624 95.3622 91.5595 95.1182C91.4501 95.0341 91.3407 94.9499 91.2397 94.8658C91.1387 94.79 91.0294 94.6975 90.9284 94.5965C90.7012 94.403 90.474 94.1842 90.2468 93.9486C89.8766 93.5699 89.5232 93.1576 89.195 92.7285C89.195 92.7285 89.1922 92.7257 89.1866 92.7201C89.0183 92.5013 88.8584 92.2741 88.6985 92.0469C88.5471 91.8113 88.3956 91.5757 88.2441 91.3317C87.9496 90.852 87.6804 90.3556 87.4279 89.8591C87.3017 89.6151 87.1839 89.3627 87.0745 89.1102C86.9567 88.8578 86.8557 88.6054 86.7548 88.3529C86.4939 87.7134 86.2667 87.0655 86.0732 86.4008C85.8544 85.6603 85.6693 84.9114 85.5262 84.1457C85.4505 83.7838 85.3832 83.4052 85.3327 83.0349C85.2486 82.5553 85.1897 82.0757 85.1392 81.5876C85.1055 81.2426 85.0719 80.8976 85.0466 80.5526C85.0298 80.3844 85.0214 80.2161 85.013 80.0478C84.9961 79.8879 84.9877 79.7196 84.9793 79.5597C84.9625 79.2821 84.9541 79.0044 84.9456 78.7267C84.9372 78.55 84.9372 78.3817 84.9372 78.205C84.9288 77.8852 84.9204 77.5655 84.9288 77.2541C84.9288 76.9091 84.9372 76.5642 84.9456 76.2192C84.9541 75.8657 84.9625 75.5039 84.9877 75.1421C84.9961 74.7382 85.0214 74.3343 85.0634 73.9388C85.1223 73.1815 85.1981 72.4326 85.2906 71.6753C85.3832 70.9264 85.4926 70.1775 85.6272 69.4286C85.7619 68.6797 85.9049 67.9477 86.0648 67.2072C86.09 67.0894 86.1153 66.98 86.1405 66.8706C86.2836 66.2395 86.435 65.6168 86.6033 64.9942C86.679 64.7249 86.7548 64.4472 86.8389 64.1695C86.9651 63.7152 87.0998 63.2523 87.2428 62.798C87.47 62.0659 87.714 61.3423 87.9665 60.6102C88.0927 60.2484 88.2273 59.8865 88.3619 59.5247C88.3956 59.4321 88.4377 59.3312 88.4713 59.2386C88.8416 58.2541 89.2371 57.2864 89.6494 56.3272C89.7083 56.1926 89.7672 56.0579 89.8261 55.9317C89.9439 55.6709 90.0533 55.41 90.1795 55.1492C90.3478 54.7621 90.5329 54.375 90.718 53.9964C91.2145 52.9614 91.7446 51.9432 92.3 50.9503C92.4598 50.6726 92.6197 50.3949 92.7796 50.1173C92.8217 50.0499 92.8637 49.9826 92.8974 49.9153C93.0236 49.7049 93.1498 49.4946 93.276 49.2926C93.6042 48.7457 93.9492 48.2072 94.311 47.677C94.5803 47.2731 94.8496 46.8777 95.1272 46.4822C95.4049 46.0867 95.691 45.6912 95.9855 45.3126C96.238 44.976 96.4904 44.6394 96.7597 44.3112C97.0205 43.9831 97.2898 43.6465 97.5674 43.3267C97.8956 42.9312 98.2322 42.5442 98.5856 42.1655C98.8212 41.8962 99.0737 41.627 99.3345 41.3661C100.159 40.491 101.026 39.6496 101.943 38.8418C104.181 36.8475 106.773 35.1141 109.474 33.8267C118.023 29.7457 125.706 33.204 128.634 42.2328C128.769 42.6536 128.895 43.0743 129.013 43.495C129.13 43.9157 129.24 44.3365 129.332 44.7572C129.433 45.1779 129.526 45.5986 129.602 46.0194C129.686 46.4401 129.753 46.8608 129.82 47.2816C130.006 48.5606 130.123 49.8396 130.165 51.1186C130.174 51.3205 130.182 51.5225 130.174 51.7244C130.182 51.9264 130.191 52.1283 130.191 52.3303C130.191 52.5575 130.191 52.7931 130.191 53.0287H130.182ZM83.6414 65.2803C83.9527 63.9844 84.3061 62.697 84.6932 61.4348C84.2977 62.697 83.9443 63.9844 83.6414 65.2803V65.2803Z" fill="#187D35"/>
<path d="M124.956 51.0424C124.898 50.6469 124.839 50.2598 124.763 49.8644C124.569 48.8378 124.309 47.8028 123.964 46.7678C121.826 40.3139 115.987 37.5455 109.751 40.2045C107.749 41.0627 105.763 42.2492 104.147 43.7049C103.617 44.1845 103.104 44.6642 102.599 45.169C101.842 45.9095 101.126 46.6668 100.445 47.4494C99.9905 47.9627 99.5529 48.4928 99.1322 49.0313C98.9134 49.2922 98.7115 49.5614 98.5095 49.8391C98.1477 50.3272 97.7943 50.8152 97.4493 51.3201C97.0286 51.9259 96.6247 52.5486 96.246 53.1797C95.556 54.3157 94.9334 55.4684 94.3696 56.6549H94.3612L94.3528 56.6633C93.9152 57.5805 93.5113 58.5061 93.1411 59.4485C93.0149 59.7683 92.8971 60.0796 92.7792 60.3994C92.611 60.8537 92.4511 61.3081 92.2996 61.7709C92.2828 61.8046 92.2744 61.8382 92.266 61.8719C92.2155 62.015 92.1734 62.158 92.1229 62.3095C92.064 62.4946 92.0051 62.6797 91.9546 62.8648C91.9041 63.0247 91.8536 63.1846 91.8116 63.3445C91.8032 63.3697 91.8032 63.3865 91.7947 63.4118C91.7443 63.5716 91.7022 63.7399 91.6601 63.9082C91.6517 63.9335 91.6433 63.9503 91.6349 63.9755C91.618 64.0429 91.6012 64.1186 91.576 64.1859C91.5676 64.1943 91.5676 64.2111 91.5676 64.2196C91.5339 64.3205 91.5002 64.4299 91.475 64.5309C91.0627 66.0876 90.7261 67.6695 90.4652 69.2935C90.297 70.3285 90.1539 71.3719 90.0445 72.4322C89.9183 73.6354 89.8594 74.8387 89.8846 76.0336C89.8931 76.8161 89.9435 77.5903 90.0445 78.3644C90.2885 80.4512 90.8355 82.5044 91.7863 84.4902C92.2239 85.399 92.7203 86.1983 93.2925 86.8967C93.4861 87.1408 93.6796 87.3595 93.8816 87.5699C95.0596 88.7984 96.4564 89.6315 98.0215 90.0606C99.7549 90.5402 101.699 90.515 103.76 89.9512C104.13 89.8503 104.484 89.7409 104.837 89.6146C105.014 89.5557 105.191 89.4884 105.367 89.4211C107.622 88.5292 109.6 87.1492 111.417 85.5084C111.99 84.9951 112.537 84.4734 113.058 83.9348C113.328 83.6656 113.58 83.3879 113.841 83.1102C114.093 82.8325 114.346 82.5548 114.59 82.2687C115.078 81.705 115.549 81.1244 116.003 80.5354C116.231 80.2408 116.458 79.9379 116.677 79.635C118.646 76.9171 120.295 73.972 121.734 70.8502C121.936 70.1939 122.146 69.5376 122.356 68.8812C122.457 68.5531 122.567 68.2249 122.676 67.8967C122.886 67.2404 123.097 66.584 123.299 65.9277C123.593 64.9348 123.879 63.9419 124.115 62.9406C125.049 58.9857 125.487 55.0056 124.956 51.0424V51.0424ZM122.323 56.4445C122.323 56.6717 122.306 56.8905 122.289 57.1093C122.239 57.9591 122.146 58.7922 122.02 59.6C121.969 59.9534 121.919 60.2984 121.851 60.6434C121.851 60.6855 121.843 60.7275 121.835 60.7612C121.776 61.1062 121.708 61.4428 121.633 61.7709C121.481 62.4778 121.313 63.1677 121.128 63.8325C121.002 64.2953 120.867 64.7497 120.724 65.1957C120.648 65.4481 120.564 65.6921 120.48 65.9361C120.354 66.298 120.219 66.6598 120.093 67.0048C119.958 67.3498 119.824 67.6948 119.689 68.0229C118.587 70.623 117.493 72.9118 116.323 74.9481C116.189 75.2005 116.045 75.4446 115.894 75.6802C115.81 75.84 115.717 75.9915 115.616 76.143C115.49 76.3533 115.364 76.5637 115.221 76.7656C114.792 77.4472 114.337 78.1036 113.866 78.7346C112.991 79.8959 112.074 80.9561 111.072 81.949C110.576 82.4539 110.063 82.9335 109.524 83.3879C107.9 84.7763 106.032 86.0048 104.08 86.8547C103.777 86.9893 103.474 87.0987 103.18 87.1997C102.919 87.2922 102.658 87.368 102.405 87.4269C102.077 87.5026 101.749 87.5615 101.438 87.5952C101.16 87.6288 100.891 87.6456 100.622 87.6456C97.7354 87.6541 95.3793 85.8786 94.033 82.6558C93.9152 82.3697 93.7974 82.0752 93.6964 81.7807C93.5955 81.503 93.5029 81.2169 93.4187 80.9308C93.4103 80.914 93.4019 80.8972 93.4019 80.8804C93.242 80.3502 93.1074 79.8201 92.998 79.2816C92.998 79.2648 92.9896 79.2479 92.9896 79.2395C92.9223 78.9113 92.8718 78.5748 92.8213 78.2382C92.7708 77.9016 92.7288 77.565 92.6951 77.22V77.1948C92.6699 76.9339 92.653 76.6647 92.6446 76.3954C92.6278 76.1093 92.6194 75.8148 92.6194 75.5203V75.4614C92.6194 75.251 92.6194 75.0407 92.6278 74.8303C92.6362 74.418 92.6614 73.9973 92.7035 73.5765C92.7288 73.3157 92.754 73.0548 92.7877 72.8024C92.7961 72.7098 92.8129 72.6173 92.8213 72.5163C92.8718 72.003 92.9307 71.4981 93.0149 70.9933C93.0233 70.9091 93.0401 70.825 93.0485 70.7408C93.1242 70.1939 93.2168 69.6469 93.3178 69.1C93.4188 68.511 93.5366 67.9304 93.6712 67.3498C93.7301 67.0637 93.7974 66.7692 93.8647 66.4831C94.0667 65.6248 94.2939 64.7749 94.5547 63.9335C94.5547 63.9335 94.5547 63.9279 94.5547 63.9166C94.6389 63.6305 94.7314 63.3529 94.824 63.0668H94.8324C95.0932 62.2421 95.3878 61.4259 95.7075 60.6266C95.758 60.4835 95.8085 60.3489 95.8674 60.2058C96.1366 59.5327 96.4312 58.8763 96.7425 58.22C96.9781 57.6983 97.239 57.1766 97.5166 56.6633C98.0467 55.6283 98.6358 54.6186 99.2837 53.6257C99.4351 53.3816 99.6034 53.1292 99.7717 52.8852C99.9316 52.6412 100.1 52.3971 100.277 52.1531C100.596 51.6987 100.925 51.2528 101.27 50.8068C101.665 50.3019 102.069 49.8055 102.49 49.3174C102.877 48.8546 103.281 48.4002 103.701 47.9458C103.903 47.7355 104.105 47.5251 104.316 47.3232C105.149 46.4901 106.066 45.716 107.025 45.0092C107.244 44.8493 107.463 44.6978 107.681 44.5464C107.917 44.3781 108.161 44.2182 108.405 44.0583C108.649 43.9069 108.893 43.7554 109.137 43.6039C109.322 43.4861 109.516 43.3852 109.701 43.2842C109.852 43.2 110.004 43.1243 110.155 43.0486C110.164 43.0402 110.172 43.0402 110.172 43.0486C110.332 42.9644 110.492 42.8887 110.652 42.8214C110.828 42.7372 110.997 42.6699 111.165 42.6026C111.527 42.468 111.897 42.3586 112.242 42.266C112.52 42.1903 112.789 42.1314 113.05 42.0977C113.134 42.0809 113.227 42.0641 113.311 42.0557C113.42 42.0388 113.521 42.0304 113.622 42.022C113.715 42.0136 113.816 42.0052 113.908 41.9968C113.933 41.9883 113.95 41.9883 113.967 41.9968C114.203 41.9799 114.438 41.9799 114.665 41.9968C114.708 41.9883 114.75 41.9883 114.792 42.0052C114.968 42.0136 115.145 42.0304 115.322 42.0557C115.406 42.0557 115.49 42.0641 115.574 42.0893C115.65 42.1062 115.726 42.1146 115.793 42.1314C115.936 42.1482 116.071 42.1819 116.205 42.2324C116.298 42.2576 116.399 42.2829 116.491 42.3165C116.55 42.3249 116.609 42.3502 116.668 42.3754C116.862 42.4343 117.047 42.5101 117.223 42.6026C117.442 42.7036 117.653 42.813 117.863 42.9392C118.065 43.0654 118.267 43.2 118.469 43.3515C118.561 43.4188 118.662 43.503 118.755 43.5787C118.923 43.7133 119.092 43.8732 119.243 44.0331C119.495 44.2855 119.731 44.5632 119.941 44.8577C120.009 44.9503 120.076 45.0428 120.143 45.1438C120.227 45.2616 120.303 45.3794 120.379 45.5056C120.488 45.6739 120.589 45.8506 120.673 46.0357C120.741 46.1451 120.791 46.2545 120.842 46.3639C120.892 46.4565 120.943 46.5574 120.976 46.6584C121.052 46.8183 121.119 46.9782 121.178 47.138C121.195 47.1633 121.204 47.1969 121.212 47.2222C121.296 47.4241 121.363 47.6345 121.431 47.8449C121.498 48.0384 121.557 48.2488 121.607 48.4507C121.683 48.7284 121.751 49.0145 121.809 49.309C122.306 51.7576 122.441 54.1558 122.323 56.4445V56.4445Z" fill="#187D35"/>
<path d="M117.443 55.8304C117.384 54.8712 117.232 53.9119 116.955 52.9358C116.862 52.6161 116.761 52.3216 116.635 52.0439C116.458 51.6232 116.248 51.2445 116.004 50.9079C115.844 50.6807 115.676 50.4704 115.491 50.2853C114.077 48.8464 111.982 48.5519 109.735 49.6878C108.406 50.361 107.152 51.3202 106.125 52.4057C102.187 56.5709 99.6544 61.5187 98.4511 67.047C98.3754 67.4173 98.2996 67.7875 98.2323 68.1577C98.165 68.5111 98.1061 68.873 98.0556 69.2264C97.8705 70.5391 97.7695 71.8854 97.7695 73.2149C97.7695 74.0647 97.8116 74.8978 97.8957 75.7224C97.9883 76.6733 98.2576 77.4979 98.6531 78.1879C98.8129 78.4655 98.998 78.718 99.1916 78.9452C100.765 80.7627 103.491 81.1161 106.024 79.5258C109.053 77.6241 111.065 74.9735 112.756 72.0453C113.522 70.7158 114.228 69.3358 114.918 67.9474C115.028 67.6192 115.146 67.291 115.263 66.9713C115.625 65.9868 115.995 64.9939 116.273 63.9757C117.014 61.2915 117.611 58.582 117.443 55.8304V55.8304ZM112.545 66.3739C112.478 66.5506 112.419 66.7189 112.36 66.8871C111.645 68.3429 110.93 69.7565 110.139 71.086C109.213 72.6343 108.178 74.0647 106.899 75.3017C106.714 75.4784 106.529 75.6551 106.327 75.815C106.024 76.0842 105.696 76.3283 105.368 76.5639C105.275 76.6312 105.191 76.6985 105.099 76.7658C103.887 77.5989 102.827 77.8681 102.036 77.582C101.842 77.5063 101.657 77.4053 101.489 77.2623C100.925 76.7742 100.588 75.8823 100.538 74.6117C100.53 74.4434 100.529 74.2667 100.529 74.09C100.471 71.7508 100.74 69.3526 101.278 67.0891C101.346 66.8198 101.413 66.5506 101.489 66.2813C101.564 66.012 101.64 65.7428 101.716 65.4735C102.027 64.4133 102.406 63.3699 102.843 62.3601C103.062 61.8552 103.298 61.3588 103.542 60.8623C104.526 58.8933 105.755 57.0421 107.227 55.334C107.438 55.0984 107.648 54.8628 107.884 54.6272C108.549 53.9288 109.289 53.2724 110.072 52.7171C110.181 52.6413 110.29 52.574 110.391 52.5067C110.602 52.3805 110.812 52.2627 111.014 52.1617C111.216 52.0607 111.401 51.985 111.586 51.9345H111.595C112.116 51.7746 112.579 51.7662 112.966 51.9008C113.025 51.9261 113.084 51.9513 113.143 51.9766C113.252 52.0271 113.362 52.0944 113.454 52.1785C113.656 52.3468 113.824 52.574 113.968 52.8517C114.035 52.9863 114.094 53.1378 114.144 53.3061C114.169 53.3734 114.186 53.4323 114.203 53.4996C114.279 53.7857 114.329 54.1139 114.355 54.4841C114.548 57.0758 114.195 59.7348 113.808 62.3265C113.715 62.9407 113.555 63.5382 113.362 64.1272C113.235 64.5142 113.101 64.9013 112.958 65.2716C112.815 65.6502 112.68 66.012 112.545 66.3739V66.3739Z" fill="#187D35"/>
</svg>
