<svg width="113" height="15" viewBox="0 0 113 15" fill="none" xmlns="http://www.w3.org/2000/svg">
<path fill-rule="evenodd" clip-rule="evenodd" d="M2.80065 1.54487C3.82932 0.734917 5.35347 0.246094 7.35224 0.246094C9.08161 0.246094 10.8766 0.613956 12.237 1.37918L12.3777 1.45831L10.9509 4.89986L10.7761 4.81106C9.54235 4.18431 8.38965 3.88471 7.31591 3.88471C6.70112 3.88471 6.32511 3.97491 6.10884 4.09759C5.90638 4.21242 5.84446 4.35365 5.84446 4.50327C5.84446 4.60828 5.89876 4.70598 6.06132 4.80797C6.2284 4.91279 6.47993 5.00125 6.8063 5.08487C7.09998 5.16011 7.43883 5.22782 7.80858 5.30171C7.84635 5.30926 7.88444 5.31687 7.92284 5.32457C8.33484 5.40709 8.77881 5.49809 9.2238 5.61439C10.1107 5.84621 11.0218 6.1833 11.7126 6.77502C12.412 7.37404 12.8747 8.225 12.8747 9.45178C12.8747 10.6717 12.3543 11.7977 11.3229 12.6145C10.2946 13.429 8.77048 13.9273 6.77093 13.9273C4.62302 13.9273 2.4436 13.3954 1.13521 12.5905L1 12.5073L2.52736 9.04547L2.70333 9.14961C3.87544 9.84325 5.44229 10.2887 6.80726 10.2887C7.40975 10.2887 7.79081 10.2246 8.01539 10.1229C8.12474 10.0734 8.18809 10.0189 8.22464 9.96682C8.26007 9.91637 8.27871 9.85641 8.27871 9.77925C8.27871 9.66086 8.21948 9.55555 8.05816 9.44883C7.89139 9.33851 7.6404 9.24508 7.31453 9.15696C7.0105 9.07474 6.65769 9.00119 6.27223 8.92083C6.24792 8.91576 6.22347 8.91067 6.1989 8.90554C5.78714 8.81962 5.34319 8.7256 4.89831 8.60645C4.01148 8.36892 3.10035 8.02652 2.40967 7.42746C1.7106 6.82111 1.24846 5.96127 1.24846 4.72159C1.24846 3.48401 1.76845 2.3576 2.80065 1.54487ZM3.0252 1.83091C2.08184 2.57369 1.61178 3.59406 1.61178 4.72159C1.61178 5.85609 2.02843 6.61543 2.64753 7.15241C3.27502 7.69667 4.12145 8.02172 4.99218 8.25494C5.42608 8.37116 5.86091 8.46334 6.27301 8.54933C6.29879 8.55471 6.32449 8.56007 6.35011 8.5654C6.73171 8.64494 7.09451 8.72056 7.40925 8.80568C7.74247 8.89579 8.04071 9.00121 8.25841 9.14523C8.48156 9.29286 8.64203 9.4974 8.64203 9.77925C8.64203 9.92042 8.60616 10.056 8.52181 10.1761C8.43858 10.2947 8.31686 10.3857 8.16508 10.4544C7.86739 10.5892 7.4219 10.6525 6.80726 10.6525C5.44264 10.6525 3.89857 10.2313 2.69564 9.56433L1.46163 12.3613C2.71148 13.077 4.74345 13.5634 6.77093 13.5634C8.71339 13.5634 10.1504 13.0793 11.0976 12.3291C12.0417 11.5814 12.5114 10.5606 12.5114 9.45178C12.5114 8.33166 12.0953 7.58162 11.4765 7.05154C10.8491 6.51415 10.0027 6.19402 9.13205 5.96646C8.69825 5.85308 8.26345 5.76386 7.85159 5.68136C7.81291 5.67361 7.7744 5.66592 7.7361 5.65827C7.3688 5.58488 7.01999 5.51519 6.71626 5.43738C6.38354 5.35214 6.08583 5.2527 5.86844 5.11632C5.64654 4.97711 5.48114 4.78031 5.48114 4.50327C5.48114 4.21625 5.61905 3.95723 5.92978 3.78098C6.22669 3.61257 6.67724 3.52084 7.31591 3.52084C8.40582 3.52084 9.55613 3.8111 10.765 4.39932L11.9176 1.61922C10.6426 0.944319 8.97726 0.609955 7.35224 0.609955C5.40899 0.609955 3.97208 1.08536 3.0252 1.83091ZM60.4143 7.08668C60.4143 3.11623 63.5429 0.246094 67.7715 0.246094C72.0001 0.246094 75.1287 3.11623 75.1287 7.08668C75.1287 11.0571 72.0001 13.9273 67.7715 13.9273C63.5429 13.9273 60.4143 11.0571 60.4143 7.08668ZM67.7715 0.609955C63.7164 0.609955 60.7776 3.34328 60.7776 7.08668C60.7776 10.8301 63.7164 13.5634 67.7715 13.5634C71.8266 13.5634 74.7654 10.8301 74.7654 7.08668C74.7654 3.34328 71.8266 0.609955 67.7715 0.609955ZM12.6469 0.537182H24.7455V4.23037H21.0214V13.6362H16.371V4.23037H12.6469V0.537182ZM13.0102 0.901043V3.86651H16.7343V13.2723H20.6581V3.86651H24.3822V0.901043H13.0102ZM25.6909 0.537182H30.3414V7.59609C30.3414 8.55163 30.5251 9.17164 30.8244 9.55037C31.1168 9.92035 31.5427 10.0885 32.1035 10.0885C32.6642 10.0885 33.0901 9.92035 33.3825 9.55037C33.6818 9.17164 33.8656 8.55163 33.8656 7.59609V0.537182H38.4434V7.72344C38.4434 9.67038 37.8593 11.2278 36.7554 12.2978C35.6523 13.3671 34.0533 13.9273 32.0671 13.9273C30.0809 13.9273 28.4819 13.3671 27.3788 12.2978C26.2749 11.2278 25.6909 9.67038 25.6909 7.72344V0.537182ZM26.0542 0.901043V7.72344C26.0542 9.59704 26.6146 11.0506 27.6315 12.0364C28.6493 13.0229 30.1476 13.5634 32.0671 13.5634C33.9866 13.5634 35.4849 13.0229 36.5027 12.0364C37.5197 11.0506 38.0801 9.59704 38.0801 7.72344V0.901043H34.2289V7.59609C34.2289 8.5872 34.0402 9.30438 33.6674 9.77618C33.2876 10.2567 32.7417 10.4524 32.1035 10.4524C31.4653 10.4524 30.9193 10.2567 30.5395 9.77618C30.1667 9.30438 29.978 8.5872 29.978 7.59609V0.901043H26.0542ZM39.5637 0.537182H46.0126C48.1713 0.537182 50.0109 1.15173 51.3136 2.28509C52.6191 3.42088 53.3698 5.06451 53.3698 7.08668C53.3698 9.10885 52.6191 10.7525 51.3136 11.8883C50.0109 13.0216 48.1713 13.6362 46.0126 13.6362H39.5637V0.537182ZM39.927 0.901043V13.2723H46.0126C48.1047 13.2723 49.853 12.677 51.0753 11.6136C52.2949 10.5526 53.0065 9.0124 53.0065 7.08668C53.0065 5.16096 52.2949 3.62081 51.0753 2.55978C49.853 1.49633 48.1047 0.901043 46.0126 0.901043H39.927ZM54.5719 0.537182H59.2224V13.6362H54.5719V0.537182ZM54.9352 0.901043V13.2723H58.8591V0.901043H54.9352ZM65.885 4.87589C65.4057 5.38561 65.1011 6.13481 65.1011 7.08668C65.1011 8.03855 65.4057 8.78776 65.885 9.29748C66.3644 9.8071 67.0286 10.0885 67.7715 10.0885C68.5144 10.0885 69.1787 9.8071 69.658 9.29748C70.1374 8.78776 70.4419 8.03855 70.4419 7.08668C70.4419 6.13481 70.1374 5.38561 69.658 4.87589C69.1787 4.36626 68.5144 4.08483 67.7715 4.08483C67.0286 4.08483 66.3644 4.36626 65.885 4.87589ZM65.6206 4.62641C66.1722 4.0399 66.9339 3.72097 67.7715 3.72097C68.6091 3.72097 69.3708 4.0399 69.9224 4.62641C70.474 5.21282 70.8052 6.05551 70.8052 7.08668C70.8052 8.11786 70.474 8.96055 69.9224 9.54696C69.3708 10.1335 68.6091 10.4524 67.7715 10.4524C66.9339 10.4524 66.1722 10.1335 65.6206 9.54696C65.0691 8.96055 64.7378 8.11786 64.7378 7.08668C64.7378 6.05551 65.0691 5.21282 65.6206 4.62641ZM43.8509 3.8847H45.831C46.7658 3.8847 47.5731 4.16415 48.1479 4.71525C48.7239 5.26755 49.0463 6.07365 49.0463 7.08668C49.0463 8.09972 48.7239 8.90581 48.1479 9.45811C47.5731 10.0092 46.7658 10.2887 45.831 10.2887H43.8509V3.8847ZM44.2142 4.24857H45.831C46.6945 4.24857 47.4041 4.50582 47.8966 4.97807C48.3879 5.44913 48.683 6.15306 48.683 7.08668C48.683 8.02031 48.3879 8.72423 47.8966 9.19529C47.4041 9.66755 46.6945 9.9248 45.831 9.9248H44.2142V4.24857Z" fill="#414141" stroke="#414141" stroke-width="0.3"/>
<path d="M102.936 0.354492L104.488 2.7776L101.808 6.41225L97.9453 0.354492H102.936Z" fill="#414141"/>
<path fill-rule="evenodd" clip-rule="evenodd" d="M102.837 0.536226H98.2768L101.819 6.09126L104.267 2.77035L102.837 0.536226ZM104.488 2.7776L102.936 0.354492H97.9453L101.808 6.41225L104.488 2.7776Z" fill="#414141"/>
<path d="M79.2891 13.4393H87.963V10.0185H83.8057V0.354492H79.2891V13.4393Z" fill="#414141"/>
<path d="M93.283 10.112V8.14539H96.785V5.46143H93.283V3.68176H98.9097L96.785 0.354492H88.8429V13.4393H96.785L99.1585 10.112H93.283Z" fill="#414141"/>
<path d="M107.757 7.62402L112.001 13.4395H107.066L105.459 10.8405L107.757 7.62402Z" fill="#414141"/>
<path fill-rule="evenodd" clip-rule="evenodd" d="M107.757 7.62402L105.459 10.8405L107.066 13.4395H112.001L107.757 7.62402ZM107.758 7.93445L105.677 10.8477L107.167 13.2577H111.644L107.758 7.93445Z" fill="#414141"/>
<path fill-rule="evenodd" clip-rule="evenodd" d="M104.535 9.73633L111.046 0.717961H107.427L102.739 7.05496L98.412 13.0758H102.303L104.535 9.73633ZM102.497 13.4393H97.7031L102.445 6.8408L107.244 0.354492H111.757L104.833 9.94376L102.497 13.4393Z" fill="url(#paint0_linear_2178_350)"/>
<defs>
<linearGradient id="paint0_linear_2178_350" x1="97.7031" y1="6.89688" x2="111.757" y2="6.89688" gradientUnits="userSpaceOnUse">
<stop stop-color="#EC6561"/>
<stop offset="0.35" stop-color="#9D83AE"/>
<stop offset="0.68" stop-color="#A4CE8B"/>
<stop offset="1" stop-color="#9AAFDA"/>
</linearGradient>
</defs>
</svg>
