<svg width="100" height="129" viewBox="0 0 100 129" fill="none" xmlns="http://www.w3.org/2000/svg">
<path d="M74 33H44V36H74V33Z" fill="#187D35"/>
<path d="M52.1949 87.8817V76.6578H57.0789L64.0981 64.5244V56.0045L75.8381 35.1752V23.1445H81.6254C84.4594 23.1445 86.7675 20.8293 86.7675 17.9812V5.16333C86.7675 2.31763 84.4618 0 81.6254 0H19.5676C16.7312 0 14.4255 2.31518 14.4255 5.16333V17.9812C14.4255 20.8269 16.7312 23.1445 19.5676 23.1445H26.246V35.1458L37.0341 55.9751V64.5269L44.0874 76.6578H48.9981V87.8499L0 107.256L21.508 116.502L25.2477 114.618L8.40455 107.376L48.9981 91.297V106.32L29.0726 116.221L25.2891 118.128L29.1408 119.783L29.153 119.788L37.7766 115.444L37.7912 115.473L52.1973 108.315V91.3434L91.7561 107.379L50.5636 125.502L36.6737 119.529L32.934 121.414L50.5782 129L100 107.256L52.1997 87.8817H52.1949ZM19.5676 19.9321C18.4963 19.9321 17.6223 19.0569 17.6223 17.9787V5.16333C17.6223 4.08763 18.4939 3.20996 19.5676 3.20996H24.5368V9.44409H27.7335V3.20996H31.5244V9.44409H34.7211V3.20996H38.5119V9.44409H41.7087V3.20996H45.5019V9.44409H48.6987V3.20996H52.4895V9.44409H55.6862V3.20996H59.477V9.44409H62.6738V3.20996H66.4646V9.44409H69.6613V3.20996H73.4521V9.44409H76.6489V3.20996H81.6181C82.6894 3.20996 83.5634 4.08519 83.5634 5.16333V17.9812C83.5634 19.0569 82.6918 19.9345 81.6181 19.9345H19.5676V19.9321ZM30.4774 36.356H36.4692V33.146H29.4427V23.1421H72.639V34.3268L61.566 53.9729H39.6027L30.4774 36.3535V36.356ZM45.9231 73.4454L40.2308 63.6566V57.1853H60.8989V63.659L55.2358 73.4454H45.9231V73.4454Z" fill="#187D35"/>
</svg>
